<svg width="42" height="42" viewBox="0 0 42 42" fill="none" xmlns="http://www.w3.org/2000/svg">
<circle cx="21" cy="21" r="21" fill="white"/>
<g clip-path="url(#clip0_13_2)">
<path d="M20.1521 10.5551C19.8713 10.556 19.5606 10.682 19.2771 10.9646L14.273 16.625H10.5C10.0179 16.625 9.625 17.0179 9.625 17.5V24.5C9.625 24.9821 10.0179 25.375 10.5 25.375H14.2739L19.25 31.0082C20.125 31.8832 21 31.4352 21 30.2426V11.62C21 10.9279 20.6211 10.5507 20.1521 10.5534V10.5551ZM26.4959 12.3051C26.3098 12.3376 26.1392 12.4294 26.0096 12.5668C25.88 12.7043 25.7984 12.88 25.7769 13.0677C25.7554 13.2553 25.7953 13.4449 25.8905 13.6081C25.9857 13.7712 26.1312 13.8992 26.3051 13.9729C27.6068 14.6273 28.7005 15.6314 29.4636 16.8726C30.2266 18.1138 30.6288 19.543 30.625 21C30.625 24.0835 28.875 26.7312 26.3043 28.0271C26.1873 28.0678 26.0803 28.1329 25.9903 28.218C25.9003 28.3032 25.8295 28.4065 25.7824 28.521C25.7354 28.6356 25.7132 28.7589 25.7173 28.8827C25.7214 29.0065 25.7518 29.128 25.8064 29.2392C25.861 29.3504 25.9385 29.4487 26.034 29.5277C26.1294 29.6066 26.2405 29.6644 26.36 29.6972C26.4794 29.7301 26.6044 29.7371 26.7268 29.718C26.8492 29.6989 26.9661 29.654 27.0699 29.5864C30.2138 28 32.375 24.752 32.375 21C32.375 17.248 30.2129 14 27.0699 12.4136C26.9201 12.33 26.7491 12.2923 26.5781 12.3051C26.5507 12.3038 26.5233 12.3038 26.4959 12.3051ZM24.4178 15.6949C24.2293 15.7087 24.0505 15.7831 23.9079 15.907C23.7653 16.031 23.6666 16.1977 23.6267 16.3823C23.5867 16.567 23.6075 16.7596 23.6861 16.9314C23.7646 17.1032 23.8967 17.2449 24.0625 17.3355C25.4126 18.1746 26.25 19.5037 26.25 21C26.25 22.5067 25.3995 23.8534 24.0354 24.6916C23.9282 24.7475 23.8338 24.825 23.7581 24.9192C23.6823 25.0135 23.627 25.1223 23.5954 25.239C23.5639 25.3557 23.5568 25.4777 23.5748 25.5972C23.5927 25.7167 23.6352 25.8312 23.6996 25.9335C23.764 26.0358 23.8489 26.1237 23.9489 26.1915C24.0489 26.2594 24.162 26.3058 24.2808 26.3278C24.3997 26.3498 24.5218 26.3469 24.6395 26.3194C24.7572 26.2918 24.8679 26.2402 24.9646 26.1677C26.7759 25.0565 28 23.1665 28 21C28 18.8466 26.7864 16.9461 24.9918 15.8322C24.8451 15.7386 24.6739 15.6907 24.5 15.6949C24.4726 15.6936 24.4452 15.6936 24.4178 15.6949Z" fill="#2C3659"/>
</g>
<defs>
<clipPath id="clip0_13_2">
<rect width="22.75" height="22.75" fill="white" transform="translate(9.625 9.625)"/>
</clipPath>
</defs>
</svg>
